<svg width="62" height="62" viewBox="0 0 62 62" fill="none" xmlns="http://www.w3.org/2000/svg">
<g clip-path="url(#clip0_1_43)">
<path fill-rule="evenodd" clip-rule="evenodd" d="M48.4104 51.801C43.6117 55.8167 37.5721 58.0499 31.3152 58.122C25.0583 58.1942 18.9689 56.1009 14.0788 52.1969C9.18878 48.2929 5.79885 42.8183 4.4835 36.7008C3.16815 30.5833 4.00828 24.1992 6.86152 18.6302C9.71476 13.0613 14.4056 8.65011 20.1392 6.14414C25.8728 3.63817 32.2965 3.19156 38.3217 4.88001C44.3469 6.56845 49.6031 10.2881 53.1995 15.4086C56.7959 20.5291 58.5114 26.7356 58.0553 32.9762C59.3883 33.1041 60.6903 33.5459 61.8334 34.2472C62.5915 27.0564 60.8122 19.8267 56.8031 13.8091C52.7941 7.79154 46.8077 3.36469 39.8796 1.29452C32.9516 -0.775656 25.5178 -0.358903 18.8646 2.47267C12.2113 5.30424 6.75721 10.3725 3.44591 16.8004C0.134609 23.2284 -0.825531 30.6117 0.731617 37.6727C2.28877 44.7338 6.26524 51.0284 11.973 55.4675C17.6807 59.9065 24.7607 62.2106 31.9878 61.9812C39.2148 61.7518 46.1344 59.0033 51.5491 54.2112C50.4559 53.4708 49.4078 52.666 48.4104 51.801ZM33.9528 39.3235C32.5054 39.6707 31.0741 40.0818 29.6631 40.5557C29.4186 40.6458 29.1585 40.6856 28.8983 40.6728C28.6381 40.6599 28.3831 40.5948 28.1486 40.4811C27.9142 40.3675 27.705 40.2078 27.5337 40.0115C27.3624 39.8152 27.2325 39.5863 27.1517 39.3386C27.0708 39.091 27.0408 38.8295 27.0633 38.57C27.0859 38.3104 27.1606 38.058 27.2829 37.828C27.4052 37.598 27.5726 37.3949 27.7752 37.2311C27.9778 37.0673 28.2113 36.946 28.4619 36.8745C29.9344 36.3901 31.5696 35.8902 33.0809 35.5454C34.5146 35.2121 36.1034 34.9525 37.355 35.1269C37.975 35.2121 38.8818 35.4562 39.5289 36.2351C40.2574 37.1109 40.2535 38.161 40.0365 38.967C39.7758 39.7982 39.369 40.5764 38.8353 41.2649C38.5369 41.6795 38.1842 42.1174 37.7696 42.594C38.1842 43.0745 38.5408 43.524 38.8391 43.9386C39.3894 44.702 39.8311 45.477 40.0404 46.2442C40.2535 47.0502 40.2574 48.1004 39.5289 48.98C38.8779 49.755 37.9634 49.9952 37.3473 50.0805C36.0956 50.2471 34.5069 49.9759 33.077 49.6426C31.5207 49.2613 29.981 48.8153 28.4619 48.3057C28.2113 48.2342 27.9778 48.1129 27.7752 47.9491C27.5726 47.7853 27.4052 47.5823 27.2829 47.3522C27.1606 47.1222 27.0859 46.8698 27.0633 46.6103C27.0408 46.3507 27.0708 46.0893 27.1517 45.8416C27.2325 45.5939 27.3624 45.365 27.5337 45.1687C27.705 44.9724 27.9142 44.8127 28.1486 44.6991C28.3831 44.5854 28.6381 44.5203 28.8983 44.5075C29.1585 44.4946 29.4186 44.5344 29.6631 44.6245C31.1008 45.0895 32.612 45.5545 33.9605 45.8684C34.6425 46.0272 35.2199 46.1357 35.6888 46.1939C35.0929 45.3958 34.443 44.6397 33.7435 43.9309C33.3953 43.5686 33.2015 43.0852 33.203 42.5827C33.2044 42.0803 33.401 41.598 33.7513 41.2377C34.4479 40.5381 35.0953 39.791 35.6888 39.0019C35.1051 39.0782 34.5256 39.1842 33.9528 39.3196V39.3235ZM36.921 38.9864L36.9094 38.9825L36.8978 38.9786C36.9133 38.9786 36.921 38.9864 36.921 38.9864ZM36.9288 46.221L36.9055 46.2249C36.913 46.2216 36.9208 46.219 36.9288 46.2171V46.221ZM23.25 31C25.389 31 27.125 28.396 27.125 25.1875C27.125 21.979 25.389 19.375 23.25 19.375C21.111 19.375 19.375 21.979 19.375 25.1875C19.375 28.396 21.111 31 23.25 31ZM33.9334 28.8184C34.1558 28.942 34.4003 29.0207 34.6531 29.0498C34.9059 29.079 35.1619 29.058 35.4066 28.9882C35.6513 28.9184 35.8798 28.8011 36.0791 28.643C36.2785 28.4848 36.4447 28.289 36.5684 28.0666C36.8743 27.4953 37.3281 27.0166 37.8823 26.6805C38.4365 26.3445 39.0707 26.1634 39.7188 26.1562C41.0324 26.1562 42.2181 26.8925 42.8691 28.0666C43.1189 28.5157 43.5368 28.8472 44.0309 28.9882C44.5251 29.1292 45.055 29.0681 45.5041 28.8184C45.9532 28.5686 46.2847 28.1507 46.4257 27.6565C46.5667 27.1624 46.5056 26.6325 46.2559 26.1834C45.6142 25.0083 44.6693 24.0266 43.5197 23.3404C42.3701 22.6541 41.0576 22.2884 39.7188 22.2812C36.89 22.2812 34.4643 23.8777 33.1816 26.1834C33.058 26.4057 32.9793 26.6503 32.9502 26.9031C32.921 27.1558 32.9419 27.4119 33.0117 27.6566C33.0816 27.9012 33.1989 28.1298 33.357 28.3291C33.5151 28.5285 33.711 28.6947 33.9334 28.8184ZM54.25 38.0835C58.5513 33.666 69.3005 41.4005 54.25 51.3437C39.1995 41.4005 49.9488 33.666 54.25 38.0874V38.0835Z" fill="black"/>
</g>
<defs>
<clipPath id="clip0_1_43">
<rect width="62" height="62" fill="white"/>
</clipPath>
</defs>
</svg>
