<svg width="65" height="65" viewBox="0 0 65 65" fill="none" xmlns="http://www.w3.org/2000/svg">
<g clip-path="url(#clip0_1_42)">
<path d="M32.5 60.9375C24.9579 60.9375 17.7247 57.9414 12.3917 52.6083C7.05858 47.2753 4.0625 40.0421 4.0625 32.5C4.0625 24.9579 7.05858 17.7247 12.3917 12.3917C17.7247 7.05858 24.9579 4.0625 32.5 4.0625C40.0421 4.0625 47.2753 7.05858 52.6083 12.3917C57.9414 17.7247 60.9375 24.9579 60.9375 32.5C60.9375 40.0421 57.9414 47.2753 52.6083 52.6083C47.2753 57.9414 40.0421 60.9375 32.5 60.9375ZM32.5 65C41.1195 65 49.386 61.5759 55.481 55.481C61.5759 49.386 65 41.1195 65 32.5C65 23.8805 61.5759 15.614 55.481 9.51903C49.386 3.4241 41.1195 0 32.5 0C23.8805 0 15.614 3.4241 9.51903 9.51903C3.4241 15.614 0 23.8805 0 32.5C0 41.1195 3.4241 49.386 9.51903 55.481C15.614 61.5759 23.8805 65 32.5 65Z" fill="black"/>
<path d="M17.4078 38.8659C17.8743 38.5966 18.4287 38.5236 18.9491 38.663C19.4694 38.8024 19.9131 39.1429 20.1825 39.6094C21.4301 41.772 23.2255 43.5677 25.3879 44.8158C27.5502 46.0639 30.0033 46.7202 32.5 46.7188C34.9967 46.7202 37.4497 46.0639 39.6121 44.8158C41.7744 43.5677 43.5698 41.772 44.8175 39.6094C44.9499 39.3765 45.127 39.1721 45.3387 39.008C45.5505 38.8439 45.7925 38.7232 46.0511 38.653C46.3096 38.5829 46.5794 38.5645 46.8451 38.599C47.1107 38.6336 47.3669 38.7203 47.5989 38.8542C47.8309 38.9882 48.0341 39.1667 48.1968 39.3795C48.3596 39.5923 48.4786 39.8352 48.547 40.0941C48.6155 40.3531 48.6321 40.6231 48.5958 40.8885C48.5595 41.1539 48.4711 41.4095 48.3356 41.6406C46.7314 44.4208 44.4232 46.7294 41.6433 48.334C38.8633 49.9386 35.7098 50.7827 32.5 50.7813C29.2902 50.7827 26.1366 49.9386 23.3567 48.334C20.5767 46.7294 18.2685 44.4208 16.6643 41.6406C16.395 41.1741 16.322 40.6197 16.4614 40.0993C16.6008 39.579 16.9413 39.1353 17.4078 38.8659ZM28.4375 26.4063C28.4375 29.77 26.6175 32.5 24.375 32.5C22.1325 32.5 20.3125 29.77 20.3125 26.4063C20.3125 23.0425 22.1325 20.3125 24.375 20.3125C26.6175 20.3125 28.4375 23.0425 28.4375 26.4063ZM35.5753 24.6309C35.8084 24.5013 36.0648 24.4188 36.3298 24.3883C36.5948 24.3577 36.8632 24.3797 37.1198 24.4528C37.3763 24.526 37.6159 24.649 37.8249 24.8148C38.0339 24.9806 38.2082 25.1859 38.3378 25.4191C38.6586 26.018 39.1343 26.5199 39.7153 26.8722C40.2962 27.2245 40.9612 27.4143 41.6406 27.4219C43.0178 27.4219 44.2609 26.65 44.9434 25.4191C45.2052 24.9482 45.6434 24.6007 46.1614 24.4529C46.6795 24.3051 47.2351 24.3691 47.7059 24.6309C48.1767 24.8928 48.5243 25.3309 48.6721 25.849C48.8199 26.367 48.7559 26.9226 48.494 27.3934C47.8213 28.6254 46.8307 29.6545 45.6255 30.374C44.4202 31.0934 43.0442 31.4768 41.6406 31.4844C38.675 31.4844 36.1318 29.8106 34.7872 27.3934C34.6575 27.1603 34.5751 26.9039 34.5445 26.6389C34.5139 26.3739 34.5359 26.1055 34.6091 25.849C34.6822 25.5924 34.8052 25.3528 34.971 25.1438C35.1368 24.9349 35.3421 24.7606 35.5753 24.6309Z" fill="black"/>
</g>
<defs>
<clipPath id="clip0_1_42">
<rect width="65" height="65" fill="white"/>
</clipPath>
</defs>
</svg>
