<svg width="62" height="62" viewBox="0 0 62 62" fill="none" xmlns="http://www.w3.org/2000/svg">
<g clip-path="url(#clip0_1_44)">
<path d="M19.251 37.7812C19.1247 37.5591 18.9557 37.3642 18.7538 37.2076C18.5518 37.0511 18.3209 36.936 18.0743 36.8691C17.8277 36.8021 17.5703 36.7846 17.3169 36.8175C17.0636 36.8505 16.8192 36.9332 16.5979 37.061C16.3766 37.1887 16.1828 37.359 16.0276 37.562C15.8724 37.7649 15.7589 37.9966 15.6935 38.2436C15.6282 38.4907 15.6124 38.7482 15.647 39.0013C15.6817 39.2545 15.766 39.4983 15.8952 39.7188C17.4254 42.3706 19.6271 44.5726 22.2787 46.1032C24.9303 47.6338 27.9383 48.4389 31 48.4375C34.0615 48.4381 37.0692 47.6327 39.7207 46.1022C42.3722 44.5717 44.574 42.3701 46.1047 39.7188C46.234 39.4983 46.3183 39.2545 46.3529 39.0013C46.3875 38.7482 46.3717 38.4907 46.3064 38.2436C46.2411 37.9966 46.1276 37.7649 45.9724 37.562C45.8172 37.359 45.6233 37.1887 45.4021 37.061C45.1808 36.9332 44.9364 36.8505 44.683 36.8175C44.4296 36.7846 44.1722 36.8021 43.9256 36.8691C43.679 36.936 43.4481 37.0511 43.2462 37.2076C43.0443 37.3642 42.8753 37.5591 42.749 37.7812C41.5589 39.8441 39.8464 41.5569 37.7838 42.7474C35.7213 43.9379 33.3815 44.5639 31 44.5625C28.6185 44.5639 26.2787 43.9379 24.2161 42.7474C22.1536 41.5569 20.441 39.8441 19.251 37.7812ZM27.125 19.8245V19.375C27.125 18.3473 26.7167 17.3617 25.99 16.635C25.2633 15.9083 24.2777 15.5 23.25 15.5H12.71C12.121 15.5 11.5397 15.6343 11.0104 15.8927C10.481 16.151 10.0176 16.5267 9.65519 16.991C9.29281 17.4554 9.04107 17.9963 8.91909 18.5725C8.79711 19.1488 8.8081 19.7453 8.95123 20.3166L10.1564 25.1294C10.5754 26.806 11.5429 28.2944 12.905 29.3581C14.2671 30.4218 15.9456 30.9997 17.6739 31H19.375C21.3227 31.0005 23.1993 30.2675 24.6311 28.947C26.0629 27.6265 26.9449 25.8153 27.1017 23.8739C28.3559 23.4444 29.6744 23.2334 31 23.25C32.5229 23.25 33.8675 23.498 34.8982 23.8739C35.055 25.8153 35.9371 27.6265 37.3689 28.947C38.8007 30.2675 40.6772 31.0005 42.625 31H44.3222C46.0504 30.9997 47.729 30.4218 49.0911 29.3581C50.4532 28.2944 51.4206 26.806 51.8397 25.1294L53.0449 20.3166C53.1879 19.7456 53.199 19.1494 53.0772 18.5735C52.9554 17.9975 52.704 17.4569 52.3421 16.9926C51.9802 16.5283 51.5172 16.1526 50.9883 15.894C50.4595 15.6353 49.8787 15.5006 49.29 15.5H38.75C37.7223 15.5 36.7366 15.9083 36.0099 16.635C35.2832 17.3617 34.875 18.3473 34.875 19.375V19.8245C33.6059 19.5206 32.305 19.3697 31 19.375C29.6437 19.375 28.3262 19.53 27.125 19.8245Z" fill="#21272A"/>
<path d="M62 31C62 39.2217 58.7339 47.1067 52.9203 52.9203C47.1067 58.7339 39.2217 62 31 62C22.7783 62 14.8933 58.7339 9.07969 52.9203C3.26606 47.1067 0 39.2217 0 31C0 22.7783 3.26606 14.8933 9.07969 9.07969C14.8933 3.26606 22.7783 0 31 0C39.2217 0 47.1067 3.26606 52.9203 9.07969C58.7339 14.8933 62 22.7783 62 31ZM58.125 31C58.125 23.806 55.2672 16.9067 50.1803 11.8197C45.0933 6.7328 38.194 3.875 31 3.875C23.806 3.875 16.9067 6.7328 11.8197 11.8197C6.7328 16.9067 3.875 23.806 3.875 31C3.875 38.194 6.7328 45.0933 11.8197 50.1803C16.9067 55.2672 23.806 58.125 31 58.125C38.194 58.125 45.0933 55.2672 50.1803 50.1803C55.2672 45.0933 58.125 38.194 58.125 31Z" fill="#21272A"/>
</g>
<defs>
<clipPath id="clip0_1_44">
<rect width="62" height="62" fill="white"/>
</clipPath>
</defs>
</svg>
