<svg width="41" height="48" viewBox="0 0 41 48" fill="none" xmlns="http://www.w3.org/2000/svg">
<path d="M34.6358 8.08465L33.8179 8.70952C33.3056 9.10097 32.6773 9.31322 32.0309 9.31322H30.7975C29.5908 9.31322 28.5645 10.1877 28.3811 11.3723C28.2929 11.9417 28.4113 12.5237 28.7153 13.0143L30.0667 15.1954L30.4129 15.7456C31.6751 17.7516 32.3444 20.0695 32.3444 22.4351C32.3444 24.3612 31.8296 26.2528 30.8524 27.9166L30.75 28.091L29.1556 30.5796L28.8884 30.9114C28.4641 31.4381 27.9299 31.867 27.3225 32.1687C27.0268 32.3155 26.7476 32.493 26.4895 32.698L25.9539 33.1236C25.0567 33.8366 24.2756 34.6828 23.6382 35.6324L22.3222 37.593L21.1833 39.6292C20.5842 41.117 19.6444 42.4458 18.4386 43.5104L18.2222 43.7015L18.6313 41.8053C18.8138 40.9594 19.0682 40.1303 19.3917 39.3271C19.9753 37.8779 20.7785 36.5259 21.7736 35.3179L22.3222 34.6519L27.6048 29.405C28.0293 28.9834 28.3954 28.5074 28.6932 27.9896C29 27.4564 29.2316 26.8839 29.3815 26.2882L29.3963 26.2297C29.539 25.6628 29.6111 25.0807 29.6111 24.4964V22.1216C29.6111 22.0293 29.5997 21.9373 29.5772 21.8477C29.3783 21.0578 28.5664 19.4924 28.132 18.8018C27.0879 17.1419 25.6159 14.5155 25.5111 14.0642L25.0231 12.287C24.8935 11.8148 24.8278 11.3276 24.8278 10.8383V10.6547C24.8278 9.7769 25.068 8.91561 25.5227 8.16291C25.9628 7.43436 26.5881 6.83362 27.3358 6.42101L28.2444 5.91964L27.3537 5.52641C26.5852 5.1872 25.7697 4.96506 24.9346 4.86747L23.4443 4.69333C22.7139 4.60798 22.0274 4.30197 21.4777 3.81665C20.7109 3.13965 20.2722 2.16927 20.2722 1.15025C20.2722 0.917269 20.5641 0.802189 20.732 0.96377C21.9992 2.18367 23.5805 3.04072 25.3082 3.43671L27.3567 3.90624C27.9466 4.04147 28.5501 4.10973 29.1556 4.10973C30.2134 4.10973 31.266 4.25616 32.2831 4.5448L32.3444 4.56221L33.8802 4.86729C34.3553 4.96167 34.7732 5.23963 35.0419 5.64002C35.575 6.43417 35.3974 7.50271 34.6358 8.08465Z" fill="#4D4D4D"/>
<path d="M26.3673 40.5341L26.1426 40.7496C25.1927 41.6602 24.3205 42.6475 23.5352 43.7015C22.8789 44.834 22.3256 46.0371 21.889 47.2734C21.8242 47.457 21.5493 47.4373 21.5159 47.2455C21.4462 46.8443 21.4111 46.4379 21.4111 46.0307V45.8884C21.4111 45.1895 21.5284 44.4954 21.7581 43.8348C21.997 43.1478 22.3539 42.5071 22.8131 41.9412L23.7712 40.7604L25.8953 38.7242C26.8378 37.8208 27.8533 36.9957 28.9317 36.2574L28.9634 36.2356L32.0316 34.4257L34.6277 32.3895C34.9424 32.0879 35.619 31.3941 35.8078 31.0321C36.0438 30.5796 36.5158 30.0413 36.5158 29.9009C36.5158 29.7605 37.2238 28.3173 37.2238 28.091C37.2238 28.0422 37.2467 27.9374 37.2832 27.8015C37.5166 26.9333 37.6959 26.0486 37.6959 25.1499L37.6737 24.98C37.5315 23.8895 36.9878 22.8559 36.9878 21.7563C36.9878 21.5753 36.5158 20.6251 36.2798 20.1727C35.8085 19.4197 35.2787 18.7044 34.6953 18.0333L34.3917 17.684C33.9208 17.2327 33.4963 16.736 33.1244 16.2012L32.7396 15.6479L31.9985 14.7954C31.7107 14.4643 31.5127 14.0656 31.4233 13.6372C31.3574 13.3214 31.3519 12.9961 31.4072 12.6783L31.4536 12.4113C31.5238 12.0074 31.6562 11.6166 31.846 11.2527L31.8561 11.2333C31.9728 11.0095 32.11 10.7967 32.2657 10.5977L32.365 10.4707C32.6135 10.1531 32.9061 9.87223 33.2341 9.63641C33.5326 9.42185 33.8577 9.2465 34.2014 9.11471L34.3062 9.07451C34.6766 8.93248 35.0624 8.83354 35.4557 8.77967L36.3095 8.66275C36.4463 8.64402 36.5851 8.64557 36.7214 8.66735L37.3606 8.76948C37.6873 8.82167 38.0022 8.62482 38.0961 8.3097L38.3108 7.58945C38.3532 7.44717 38.5324 7.40027 38.6399 7.50331L38.854 7.67806C39.3367 8.0721 39.7438 8.54938 40.056 9.08698C40.6727 10.0563 41 11.1795 41 12.3262C41 12.4238 40.8557 12.4633 40.797 12.3854C40.6717 12.2194 40.5241 12.0704 40.3579 11.9429L39.9622 11.6394C39.7107 11.4466 39.4397 11.2802 39.1536 11.1431L38.9689 11.0546C38.4382 10.8002 37.8706 10.6299 37.2867 10.55L37.0794 10.5216C36.7054 10.4704 36.3262 10.4704 35.9522 10.5216L35.4351 10.5924C35.0607 10.6437 34.7063 10.7913 34.4072 11.0207C33.9446 11.3755 33.646 11.9009 33.5791 12.4776L33.5524 12.7084C33.4844 13.2945 33.6115 13.8865 33.9141 14.3942L34.2022 14.8775C34.3283 15.0891 34.4722 15.2897 34.6322 15.4772L36.5158 17.684L36.5924 17.7784C37.6322 19.06 38.404 20.535 38.8623 22.1167L38.9069 22.2706C39.1995 23.2802 39.3479 24.3256 39.3479 25.3762L39.2368 26.3348C39.1537 27.0516 39.0034 27.759 38.7878 28.448L38.7691 28.5076C38.5264 29.2833 38.198 30.0299 37.79 30.7339C37.4135 31.3835 36.9713 31.9932 36.4702 32.5537L35.8078 33.2945L33.9197 35.1044L32.0316 36.4618C30.9318 37.0643 29.8803 37.7497 28.8862 38.512L28.0194 39.1767L26.3673 40.5341Z" fill="#4D4D4D"/>
<path d="M36.9 5.88812L38.4944 7.68903C38.6303 7.82334 38.664 8.02916 38.5779 8.19932L37.9875 9.36637C37.89 9.55916 37.6539 9.63734 37.4594 9.54123C37.3916 9.50774 37.3155 9.49432 37.2403 9.50259L35.8147 9.65913C35.4768 9.69624 35.1455 9.77833 34.8296 9.9032C33.6981 10.3505 32.8011 11.3009 32.5915 12.4924C32.5792 12.5626 32.5722 12.6142 32.5722 12.6415C32.5722 13.9381 32.838 15.225 33.7 16.1986L33.9389 16.4684C34.4704 17.2188 35.3056 18.7196 35.5333 18.9447C35.5836 18.9943 35.7677 19.2789 36.0141 19.6477C36.8202 20.8539 37.5089 22.1786 37.7961 23.5979C37.9568 24.3922 37.9836 25.2075 37.8753 26.0105L37.8203 26.4179C37.6636 27.5794 37.2978 28.7033 36.7405 29.7361L35.9791 31.147C35.8349 31.4143 35.6448 31.6545 35.4173 31.8568L33.2893 33.7496C31.9038 34.982 30.3949 36.0704 28.7864 36.9977L27.6017 37.6807C26.365 38.3937 25.2257 39.2618 24.2121 40.2636L23.6328 40.836C23.3669 41.0988 23.1234 41.3829 22.9047 41.6856C22.37 42.4253 21.9914 43.2648 21.7916 44.1535L21.6389 44.8327L21.8667 43.0318L21.9267 42.3789C22.0375 41.174 22.3752 40.0005 22.9221 38.9195C23.1293 38.5099 23.3656 38.1156 23.6291 37.7393L24.6238 36.3194C25.0626 35.693 25.5573 35.1072 26.1019 34.569L26.2052 34.4668C27.252 33.4323 28.0978 32.2149 28.7 30.8757L30.0667 28.6245L30.4971 27.6887C30.9659 26.6694 31.2537 25.5773 31.3479 24.4607L31.3601 24.3158C31.4088 23.7381 31.3967 23.157 31.3239 22.5818C31.2453 21.9599 31.0962 21.3489 30.8796 20.7602L30.7343 20.3651C30.4419 19.5704 30.066 18.8086 29.6129 18.0921L29.1556 17.3689L28.1533 16.0953C27.7595 15.5949 27.4165 15.057 27.1294 14.4895L26.9512 14.1374C26.751 13.7416 26.5952 13.3252 26.4865 12.8957C26.2936 12.1333 26.2523 11.3408 26.3648 10.5626L26.4445 10.0114C26.5798 9.07544 26.9251 8.18162 27.455 7.39606C27.5251 7.29225 27.6151 7.20324 27.7199 7.13417L28.2444 6.78858C29.1485 6.34185 30.1247 6.05684 31.1283 5.94663L31.3022 5.92754C31.5116 5.90454 31.7089 6.02976 31.7758 6.22823L32.0899 7.15955C32.1075 7.21167 32.1371 7.25899 32.1763 7.29776L32.2695 7.38982C32.4686 7.5866 32.711 7.73474 32.9776 7.82257C33.1617 7.88322 33.3544 7.91414 33.5484 7.91414H33.9563C34.0946 7.91414 34.2311 7.88228 34.355 7.82105C34.5285 7.73535 34.6865 7.60663 34.786 7.44152C34.8229 7.38013 34.85 7.31481 34.85 7.2388V6.56346C34.85 6.38337 34.3944 5.96316 34.1667 5.88812L32.8776 5.25115C32.2227 4.92752 31.5197 4.71044 30.7955 4.60819L30.2944 4.53745H27.0955C26.6477 4.53745 26.201 4.49373 25.7618 4.40692L24.1444 4.08722L23.2898 3.8459C22.7981 3.70707 22.3068 3.5374 21.8993 3.23098C21.6567 3.04861 21.4589 2.84871 21.229 2.56777C21.1985 2.53048 21.1717 2.49018 21.1487 2.44791L19.9792 0.301272C19.8777 0.115113 20.0946 -0.0818189 20.2722 0.0351885L21.4111 0.710527L23.0055 1.38587L25.0555 2.0612L27.5611 2.51143L30.2566 2.68903C30.7361 2.72062 31.2108 2.80234 31.673 2.93284L32.5722 3.18677L33.2734 3.41776C34.1631 3.71086 34.9826 4.18263 35.6809 4.80373L36.9 5.88812Z" fill="white"/>
<path d="M25.0555 21.5301L25.4701 22.1889C25.7712 22.6674 25.9824 23.1933 26.0961 23.741C26.1686 24.09 25.764 24.2699 25.5111 24.0187L24.6 22.8875L24.5823 22.8612C23.9881 21.976 23.3074 21.1512 22.55 20.3989C21.6689 19.6988 20.7329 18.8026 19.76 18.2351C19.6988 18.1994 19.6413 18.1663 19.5889 18.1365L17.9944 17.0053L16.4 16.1004L14.35 14.9692L12.7555 14.0642C11.5446 13.3125 10.4236 12.4267 9.41385 11.4238L8.665 10.68C7.7581 9.77927 7.05587 8.69608 6.60554 7.50331L6.36222 6.77829C6.07233 5.9145 5.97463 4.99851 6.07587 4.09356L6.08423 4.01882C6.12794 3.62804 6.2131 3.24295 6.33828 2.86995C6.51546 2.34201 6.77112 1.84335 7.09677 1.39051L7.74443 0.489917V0.757684C7.74443 1.18041 7.80375 1.60108 7.92067 2.00754C8.10627 2.65275 8.36565 3.27473 8.69375 3.86131L9.33887 5.01469C10.2488 6.37034 11.2564 7.65874 12.3537 8.86978L12.7555 9.31322L15.7167 12.2543L17.9944 14.2905C18.7537 14.8184 20.3178 15.9194 20.5 16.1004L22.0944 17.684C23.1534 18.7359 24.0785 19.9127 24.849 21.1882L25.0555 21.5301Z" fill="white"/>
<path d="M19.6869 21.9659L20.1261 22.5344C20.2794 22.7329 20.42 22.9401 20.5472 23.1549C20.826 23.6257 20.3431 23.982 19.9905 23.5635L19.6704 23.1834L19.6309 23.1463C18.9959 22.5505 18.3047 22.0166 17.5669 21.5521C16.7429 21.1531 15.9555 20.4603 15.1068 20.1162C15.0544 20.0949 15.0045 20.077 14.9581 20.0631L13.3969 19.6942C12.3933 19.5731 11.401 19.373 10.4293 19.0959L10.1061 19.0037L8.71335 18.5872C7.64055 18.2178 6.61441 17.7262 5.65539 17.1224L4.94455 16.6749C4.02391 16.0953 3.2318 15.3355 2.61652 14.4418L2.26963 13.8994C1.8476 13.2396 1.55913 12.5043 1.42036 11.7348L1.4059 11.6545C1.34762 11.3314 1.32052 11.0035 1.32495 10.6752C1.33144 10.1949 1.40539 9.71782 1.54467 9.25782L1.8031 8.40428L1.86982 8.63805C1.96737 8.97981 2.10763 9.3081 2.28732 9.61525C2.57994 10.1154 2.92489 10.5835 3.31645 11.0118L4.05036 11.8144L5.5417 13.2138L7.59178 14.658L8.37909 15.1537C9.77475 16.0323 11.2383 16.7998 12.756 17.4489C13.4421 17.7273 14.8587 18.3122 15.0362 18.424L16.5891 19.4017C17.6208 20.0512 18.5712 20.8201 19.4203 21.6922L19.6869 21.9659Z" fill="white"/>
<path d="M19.5889 25.6118C7.13003 25.923 1.0834 30.2799 1.0834 37.593C-1.29832 32.6139 0.0715707 28.402 6.94652 25.4562C12.5209 23.963 15.1677 24.2916 19.5889 25.6118Z" fill="white"/>
<path d="M16.1722 29.9809C8.58853 32.4507 9.0295 34.9613 5.92221 42.3441L5.69443 40.9867C6.38472 35.4937 7.91369 33.462 10.7974 29.981C10.7974 29.981 12.7792 28.6608 16.1722 29.9809Z" fill="#4D4D4D"/>
<path d="M20.0444 29.684C10.483 29.9953 5.84255 34.3521 5.84255 41.6653C4.01472 36.6862 5.06604 32.4743 10.3422 29.5284C14.6202 28.0353 16.6515 28.3639 20.0444 29.684Z" fill="white"/>
</svg>
